<svg xmlns="http://www.w3.org/2000/svg" viewBox="0 0 64 64"><defs><style>.cls-1{fill:#B5A88E;}</style></defs><title>broker</title><g id="broker"><path class="cls-1" d="M56.63,43.22l-10-8a1,1,0,0,0-1.25,0l-5.53,4.42A17.6,17.6,0,0,0,30,33.47V32.16A10,10,0,0,0,35.8,25,3.48,3.48,0,0,0,37,18.35V15a8,8,0,0,0-8-8H22a7,7,0,0,0-7,7c0,5.79.27,3.78-1,5A3.5,3.5,0,0,0,16.2,25,10,10,0,0,0,22,32.16c0,2.22.64.62-3.42,2.46a17.81,17.81,0,0,0-10.06,13c-1.6,8.76-1.71,8.55-1.29,9S4.49,57,53,57a1,1,0,0,0,1-1V45h2A1,1,0,0,0,56.63,43.22ZM46,37.28C54,43.69,53.23,43,53,43H38.85Zm-7.71,3.6c-3,2.37-3.54,2.57-3.23,3.45S36,45,38,45V55H30.86c-2.31-15-2-11.07-1.15-13.12C32.6,43.94,32.57,44,33,44a1,1,0,0,0,1-1V37.19A15.41,15.41,0,0,1,38.29,40.88ZM28,32.8c0,1.21.33.47-2,3.55-2.3-3.06-2-2.32-2-3.55A10.15,10.15,0,0,0,28,32.8Zm-4,7.85,2-1.42,2,1.42A1.49,1.49,0,0,1,26.5,42h-1A1.49,1.49,0,0,1,24,40.65Zm8-4.46v4.87l-4.6-3.29,1.87-2.43A15.67,15.67,0,0,1,32,36.19Zm4-13.28V20.09A1.5,1.5,0,0,1,36,22.91ZM35,15v3H28a5,5,0,0,1-5-5V9h6A6,6,0,0,1,35,15ZM21,9.1c0,3.28.42,5.38-1.34,7.28A5.13,5.13,0,0,1,17,17.9V14A5,5,0,0,1,21,9.1Zm-5,11v2.82A1.49,1.49,0,0,1,16,20.09ZM18,23c0-3.46-.06-3.27,0-3.31a7,7,0,0,0,4-3.09A7,7,0,0,0,28,20h6v3a8,8,0,0,1-16,0Zm4.72,12.34,1.84,2.46L20,41.06V36.19A15.63,15.63,0,0,1,22.72,35.34ZM10.48,48A15.79,15.79,0,0,1,18,37.2V43a1,1,0,0,0,1,1c.49,0,.61-.21,3.29-2.12.87,2,1.16-1.87-1.15,13.12H9.2Zm12.69,7,1.69-11h2.28l1.69,11ZM45,55V50h2v5Zm7,0H49V49a1,1,0,0,0-1-1H44a1,1,0,0,0-1,1v6H40V45H52Z"/></g></svg>