<svg xmlns="http://www.w3.org/2000/svg" viewBox="0 0 64 64"><defs><style>.cls-1{fill:#B5A88E;}</style></defs><title>certificate</title><g id="certificate"><path class="cls-1" d="M59,10H5a1,1,0,0,0-1,1V53a1,1,0,0,0,1,1H59a1,1,0,0,0,1-1V11A1,1,0,0,0,59,10ZM58,52H6V12H58Z"/><path class="cls-1" d="M10,45a3,3,0,0,1,3,3,1,1,0,0,0,1,1H50a1,1,0,0,0,1-1,3,3,0,0,1,3-3,1,1,0,0,0,1-1V20a1,1,0,0,0-1-1,3,3,0,0,1-3-3,1,1,0,0,0-1-1H14a1,1,0,0,0-1,1,3,3,0,0,1-3,3,1,1,0,0,0-1,1V44A1,1,0,0,0,10,45Zm1-24.1A5,5,0,0,0,14.9,17H49.1A5,5,0,0,0,53,20.9V43.1A5,5,0,0,0,49.1,47H14.9A5,5,0,0,0,11,43.1Z"/><path class="cls-1" d="M24,28h2v5a1,1,0,0,0,1,1H37a1,1,0,0,0,1-1V28c1.72,0,2.61.21,2.94-.65a1,1,0,0,0-.28-1.1l-8-7a1,1,0,0,0-1.32,0l-8,7A1,1,0,0,0,24,28Zm8-6.67C38.16,26.72,37.48,26,37,26a1,1,0,0,0-1,1v5H34V29a1,1,0,0,0-1-1H31a1,1,0,0,0-1,1v3H28V27a1,1,0,0,0-1-1C26.52,26,25.86,26.7,32,21.33Z"/><path class="cls-1" d="M20,39H44a1,1,0,0,0,0-2H20A1,1,0,0,0,20,39Z"/><path class="cls-1" d="M20,44H44a1,1,0,0,0,0-2H20A1,1,0,0,0,20,44Z"/></g></svg>