<svg xmlns="http://www.w3.org/2000/svg" viewBox="0 0 64 64"><defs><style>.cls-1{fill:#B5A88E;}</style></defs><title>contract</title><g id="contract"><path class="cls-1" d="M59,49H50V13.24A6.25,6.25,0,0,0,43.76,7H10a6,6,0,0,0-6,6v2a1,1,0,0,0,1,1h9V51a6,6,0,0,0,1.76,4.25A5.83,5.83,0,0,0,20,57H54a6,6,0,0,0,6-6V50A1,1,0,0,0,59,49ZM6,14V13a4,4,0,0,1,8,0v1ZM16,51c0-41,.57-39.64-1.52-42H43.76A4.24,4.24,0,0,1,48,13.24V49H25a1,1,0,0,0-1,1v.8a4.42,4.42,0,0,1-2.89,4A4,4,0,0,1,16,51Zm38,4H24.47A6,6,0,0,0,26,51H58A4,4,0,0,1,54,55Z"/><path class="cls-1" d="M21,32H43a1,1,0,0,0,0-2H21A1,1,0,0,0,21,32Z"/><path class="cls-1" d="M21,37H43a1,1,0,0,0,0-2H21A1,1,0,0,0,21,37Z"/><path class="cls-1" d="M24,21h2v5a1,1,0,0,0,1,1H37a1,1,0,0,0,1-1V21c1.63,0,2.61.23,2.94-.65a1,1,0,0,0-.28-1.1l-8-7a1,1,0,0,0-1.32,0l-8,7A1,1,0,0,0,24,21Zm8-6.67C38.16,19.72,37.48,19,37,19a1,1,0,0,0-1,1v5H34V22a1,1,0,0,0-1-1H31a1,1,0,0,0-1,1v3H28V20a1,1,0,0,0-1-1C26.52,19,25.86,19.7,32,14.33Z"/><path class="cls-1" d="M54.17,43.55a1,1,0,0,0,1.66,0C57.69,40.77,58,40.48,58,40V22a3,3,0,0,0-6,0V40C52,40.41,52,40.27,54.17,43.55ZM54,22a1,1,0,0,1,2,0V39.7l-1,1.5-1-1.5Z"/><path class="cls-1" d="M39,44c-7.69,0-5,.31-5-1a1,1,0,0,0-1.71-.71l-.35.36a1,1,0,0,0-1.65-.36l-.29.3V40a1,1,0,0,0-1.89-.45l-3,6A1,1,0,0,0,26,47c.79,0,.86-.49,2-2.76,0,.68-.12,1.38.62,1.68a1,1,0,0,0,1.09-.21l.35-.36a1,1,0,0,0,1.65.36l.24-.24c.85.68,1.7.53,7.05.53A1,1,0,0,0,39,44Z"/></g></svg>