<svg xmlns="http://www.w3.org/2000/svg" viewBox="0 0 64 64"><defs><style>.cls-1{fill:#B5A88E;}</style></defs><title>deal</title><g id="deal"><path class="cls-1" d="M17.5,27a1,1,0,0,0-2,0A1,1,0,0,0,17.5,27Z"/><path class="cls-1" d="M59.3,29.8l-3.79,3.8-4.3-4.31a1,1,0,0,0-1.42,1.42L54.1,35,53,36.1,42.91,26l6.3-6.29a1,1,0,0,0-1.42-1.42l-7,7a1,1,0,0,0,0,1.42l.29.28c-2.7,2.5-5.39.29-8.33,3.2l-.75.75-.76-.76c-2.95-2.92-5.59-.67-8.32-3.19l.29-.28a1,1,0,0,0,0-1.42l-7-7a1,1,0,0,0-1.42,1.42L21.09,26,11,36.1,9.9,35l4.31-4.3a1,1,0,0,0-1.42-1.42L8.49,33.6,4.7,29.8a1,1,0,0,0-1.42,1.42l7,7a1,1,0,0,0,1.42,0l.27-.28c2.12,2.8-.57,4.92,2.31,7.81l7,7c.39.69.55.77,3,3.3a10.12,10.12,0,0,0,14.2.81L49.72,45.75c2.88-2.89.19-5,2.31-7.81l.27.28a1,1,0,0,0,1.42,0l7-7A1,1,0,0,0,59.3,29.8ZM14.83,41.86a7,7,0,0,0-1.43-5.34l8.09-8.1c3.39,3.21,6,.9,8.34,3.18,1.6,1.6,1.56,1.6,1.85,1.7,5.46,5.46,5.94,5.54,5.78,7a2.3,2.3,0,0,1-.61,1.29h0a2.24,2.24,0,0,1-3.08,0l-4-4a1,1,0,0,0-1.28-.11,3,3,0,0,1-3.83-.34,1,1,0,0,0-1.42,1.42,5,5,0,0,0,5.65,1l.79.78c-8.21,8.21-8.3,8.1-8.69,9.32,0,.1-.09-.08-5.31-5.3A3,3,0,0,1,14.83,41.86Zm34.34,0a3,3,0,0,1-.87,2.47L37.21,55.44a8.12,8.12,0,0,1-11.38-.71c-2.21-2.24-2.59-2.55-2.81-3a2,2,0,0,1,.38-2.29l7.71-7.72c1.3,1.3,2.17,2.46,4.19,2.46a4.15,4.15,0,0,0,3-1.22c-1.6-1.6,0,0,.15-.17A4.19,4.19,0,0,0,38.26,37l-4.77-4.76.67-.68c2.29-2.26,5,0,8.35-3.18l8.09,8.1A7,7,0,0,0,49.17,41.86Z"/><path class="cls-1" d="M46.5,27a1,1,0,0,0,2,0A1,1,0,0,0,46.5,27Z"/><path class="cls-1" d="M23,13h2v8H24a1,1,0,0,0,0,2H40a1,1,0,0,0,0-2H39V13c1.61,0,2.64.22,3-.68a1,1,0,0,0-.34-1.11l-9-7a1,1,0,0,0-1.22,0l-9,7A1,1,0,0,0,23,13Zm8,8V18h2v3Zm6,0H35V17a1,1,0,0,0-1-1H30a1,1,0,0,0-1,1v4H27V13H37ZM32,6.27C38.77,11.53,38.13,11,38,11H25.91Z"/></g></svg>