<svg xmlns="http://www.w3.org/2000/svg" viewBox="0 0 64 64"><defs><style>.cls-1{fill:#B5A88E;}</style></defs><title>discount</title><g id="discount"><path class="cls-1" d="M54.33,28.49a1,1,0,0,0,1.39-.27c2.41-3.61,2.48-3.53,2.37-4.08s1.61.73-25.54-17.37c-.79-.53,1.1-1.47-26.22,16.74a1,1,0,0,0-.27,1.39l2.22,3.32a1,1,0,0,0,1.39.27L12,26.94V50H8a1,1,0,0,0-1,1v5a1,1,0,0,0,1,1H56a1,1,0,0,0,1-1V51a1,1,0,0,0-1-1H52V26.94ZM9.39,26.27,8.28,24.62,32,8.8,55.72,24.62l-1.11,1.65C30.81,10.41,32.24,11,31.45,11.57ZM55,55H9V52H55ZM50,25.61V50H14V25.61l18-12Z"/><path class="cls-1" d="M23,46c.63,0-.65,1.06,18.71-18.29a1,1,0,0,0-1.42-1.42l-18,18A1,1,0,0,0,23,46Z"/><path class="cls-1" d="M38.5,39A3.5,3.5,0,1,0,42,42.5,3.5,3.5,0,0,0,38.5,39Zm0,5a1.5,1.5,0,0,1,0-3A1.5,1.5,0,0,1,38.5,44Z"/><path class="cls-1" d="M25.5,33A3.5,3.5,0,1,0,22,29.5,3.5,3.5,0,0,0,25.5,33Zm0-5a1.5,1.5,0,0,1,0,3A1.5,1.5,0,0,1,25.5,28Z"/></g></svg>