<svg xmlns="http://www.w3.org/2000/svg" viewBox="0 0 64 64"><defs><style>.cls-1{fill:#B5A88E;}</style></defs><title>growth</title><g id="growth"><path class="cls-1" d="M56,55H42V28.41l10-10V24a1,1,0,0,0,2,0c0-8.72,0-8.12-.08-8.38-.35-.85-.31-.62-8.92-.62a1,1,0,0,0,0,2h5.59L36,31.59l-8.29-8.3a1,1,0,0,0-1.42,0L7.36,42.23a1,1,0,0,0,.7,1.71c.56,0,.42,0,3.94-3.53V55H8a1,1,0,0,0,0,2H56A1,1,0,0,0,56,55ZM23,55V43h8V55Zm10,0V42a1,1,0,0,0-1-1H22a1,1,0,0,0-1,1V55H14V38.41l13-13,8.29,8.3a1,1,0,0,0,1.42,0L40,30.41V55Z"/><path class="cls-1" d="M14,33V8a1,1,0,0,0-2,0V33A1,1,0,0,0,14,33Z"/></g></svg>