<svg xmlns="http://www.w3.org/2000/svg" viewBox="0 0 64 64"><defs><style>.cls-1{fill:#B5A88E;}</style></defs><title>house key</title><g id="house_key" data-name="house key"><path class="cls-1" d="M54.34,27.49a1,1,0,0,0,1.38-.27c2.41-3.61,2.48-3.54,2.37-4.08s1.61.73-25.54-17.37c-.79-.53,1.1-1.47-26.21,16.74a1,1,0,0,0-.28,1.39l2.22,3.32a1,1,0,0,0,1.38.27L12,25.94V49H8a1,1,0,0,0-1,1v5a1,1,0,0,0,1,1H25.31a9,9,0,0,0,13.38,0H56a1,1,0,0,0,1-1V50a1,1,0,0,0-1-1H52V25.94ZM9.39,25.27,8.28,23.62,32,7.8,55.72,23.62l-1.11,1.65C31.13,9.62,32.47,10.4,32,10.4S33.06,9.49,9.39,25.27ZM9,54V51c15.42,0,14-.12,14.09.24A9.25,9.25,0,0,0,23.94,54Zm23,3a7,7,0,0,1-3.5-13c.71-.42.5.62.5-19.53l3-3,3,3v.76a3,3,0,0,0,0,5.66V33H34a1,1,0,0,0,0,2h1v2H34a1,1,0,0,0,0,2h1c0,4.34-.16,4.56.5,5C41.68,47.51,39.1,57,32,57Zm23-3c-16.61,0-15,.07-14.87-.15A9.38,9.38,0,0,0,40.94,51H55ZM50,24.6V49H40.94A9.16,9.16,0,0,0,37,42.52V30a1,1,0,0,0-1-1,1,1,0,0,1,0-2,1,1,0,0,0,1-1c0-2.11.08-2.32-.29-2.7-4.33-4.4-4.08-4.3-4.64-4.3s-.44,0-4.77,4.29c-.43.42-.3-1-.3,19.23a9.11,9.11,0,0,0-3.93,6.42c0,.1.67.06-9.07.06V24.6l18-12Z"/><path class="cls-1" d="M32,46a4,4,0,1,0,4,4A4,4,0,0,0,32,46Zm0,6a2,2,0,1,1,2-2A2,2,0,0,1,32,52Z"/></g></svg>