<svg xmlns="http://www.w3.org/2000/svg" viewBox="0 0 64 64"><defs><style>.cls-1{fill:#B5A88E;}</style></defs><title>house search</title><g id="house_search" data-name="house search"><path class="cls-1" d="M54.34,28.49a1,1,0,0,0,1.38-.27c2.41-3.61,2.48-3.54,2.37-4.08s1.61.73-25.54-17.37c-.79-.53,1.1-1.47-26.21,16.74a1,1,0,0,0-.28,1.39l2.22,3.32a1,1,0,0,0,1.38.27L12,26.94V50H8a1,1,0,0,0-1,1v5a1,1,0,0,0,1,1H56a1,1,0,0,0,1-1V51a1,1,0,0,0-1-1H53.5a3.22,3.22,0,0,0-.87-1.79L52,47.59V26.94ZM9.39,26.27,8.28,24.62,32,8.8,55.72,24.62l-1.11,1.65C31.13,10.62,32.47,11.4,32,11.4S33.06,10.49,9.39,26.27ZM55,55H9V52H47.26a8.27,8.27,0,0,0,1.29,1.2A3.24,3.24,0,0,0,53.21,52H55ZM40.88,42.9a1.05,1.05,0,0,0-1,.16A12,12,0,1,1,44,34c0,4.94-2.5,5.91-1.37,7l8.58,8.58a1.23,1.23,0,0,1-1.75,1.74C40.48,42.38,41.15,43,40.88,42.9ZM50,25.6v20l-5.43-5.44a14,14,0,1,0-4.14,5L45.26,50H14V25.6l18-12Z"/><path class="cls-1" d="M32,24A10,10,0,1,0,42,34,10,10,0,0,0,32,24Zm0,18a8,8,0,1,1,8-8A8,8,0,0,1,32,42Z"/></g></svg>