<svg xmlns="http://www.w3.org/2000/svg" viewBox="0 0 64 64"><defs><style>.cls-1{fill:#B5A88E;}</style></defs><title>invest</title><g id="invest"><path class="cls-1" d="M45,44H33V40.41L35.41,38H38c7.23,0,9.66-9,7-9H42a8,8,0,0,0-8,7.56l-1,1V27h9a1,1,0,0,0,0-2H41V15c1.59,0,2.63.22,2.94-.66a1,1,0,0,0-.31-1.11l-11-9a1,1,0,0,0-1.26,0l-11,9A1,1,0,0,0,21,15h2V25H22a1,1,0,0,0,0,2h9V38.59l-1-1A8,8,0,0,0,22,30H19c-2.67,0-.21,9,7,9h2.59L31,41.41V44H19a1,1,0,0,0,0,2h1.19L23,59.21A1,1,0,0,0,24,60H40a1,1,0,0,0,1-.79L43.81,46H45A1,1,0,0,0,45,44ZM42,31h1.92A6,6,0,0,1,38,36H36.08A6,6,0,0,1,42,31ZM31,25V20h2v5ZM32,6.29C41.18,13.8,40.31,13,40,13H23.8ZM25,15H39V25H35V19a1,1,0,0,0-1-1H30a1,1,0,0,0-1,1v6H25Zm1,22a6,6,0,0,1-5.92-5H22a6,6,0,0,1,5.92,5ZM39.19,58H24.81L22.24,46H41.76Z"/></g></svg>