<svg xmlns="http://www.w3.org/2000/svg" viewBox="0 0 64 64"><defs><style>.cls-1{fill:#B5A88E;}</style></defs><title>location</title><g id="location"><path class="cls-1" d="M23,22h2v8H24a1,1,0,0,0,0,2H40a1,1,0,0,0,0-2H39V22c1.61,0,2.64.22,3-.68a1,1,0,0,0-.34-1.11l-9-7a1,1,0,0,0-1.22,0l-9,7A1,1,0,0,0,23,22Zm8,8V27h2v3Zm6,0H35V26a1,1,0,0,0-1-1H30a1,1,0,0,0-1,1v4H27V22H37ZM32,15.27C38.77,20.53,38.13,20,38,20H25.91Z"/><path class="cls-1" d="M57,54.85c-3.2-21.31-2.84-20.5-3.65-20.79L47.4,31.9C52.82,18.43,43.44,7,32,7S11.18,18.43,16.6,31.9l-5.94,2.16c-.8.29-.4-.85-3.65,20.79A1,1,0,0,0,8,56c.22,0-.65.25,12.93-3.93,11.61,5.27,10.87,5.08,11.44,4.85.3-.12,2.14-1,10.7-4.85C56.58,56.22,55.78,56,56,56A1,1,0,0,0,57,54.85ZM32,9c16.16,0,23.26,21.88,0,37.8a46.11,46.11,0,0,1-3.78-2.92C8.51,27,18.25,9,32,9ZM11.9,35.74l5.52-2a32.38,32.38,0,0,0,3.19,5.07c-.2,4-.46,9.13-.57,11.45L9.22,53.58Zm10.66,5.41A47.66,47.66,0,0,0,31,48.54v5.91l-9-4.08C22.55,40.1,22.47,41,22.56,41.15ZM33,54.45c0-6.56,0-5.89.07-6a47.7,47.7,0,0,0,8.43-7.4c.06,1.27.34,6.77.47,9.28Zm11-4.2c-.11-2.32-.37-7.46-.57-11.45a32.06,32.06,0,0,0,3.19-5.07l5.52,2,2.68,17.84Z"/></g></svg>