<svg xmlns="http://www.w3.org/2000/svg" viewBox="0 0 64 64"><defs><style>.cls-1{fill:#B5A88E;}</style></defs><title>mortgage</title><g id="mortgage"><path class="cls-1" d="M55.63,15.23l-11-9a1,1,0,0,0-1.26,0l-11,9a1,1,0,0,0-.31,1.11c.29.82.94.66,2.94.66V27H34a1,1,0,0,0,0,2H54a1,1,0,0,0,0-2H53V17h2A1,1,0,0,0,55.63,15.23ZM44,8.29C53.19,15.81,52.31,15,52,15H35.8ZM43,27V22h2v5Zm8,0H47V21a1,1,0,0,0-1-1H42a1,1,0,0,0-1,1v6H37V17H51Z"/><path class="cls-1" d="M32,41H8a1,1,0,0,0-1,1V56a1,1,0,0,0,1,1H32a1,1,0,0,0,1-1V42A1,1,0,0,0,32,41ZM31,55H9V43H31Z"/><path class="cls-1" d="M20,54a5,5,0,1,0-5-5A5,5,0,0,0,20,54Zm0-8a3,3,0,1,1-3,3A3,3,0,0,1,20,46Z"/><path class="cls-1" d="M13.29,38.71a1,1,0,0,0,1.42,0l2.5-2.5a1,1,0,0,0-1.42-1.42l-.79.8V33A12,12,0,0,1,27,21h5a1,1,0,0,0,0-2H27A14,14,0,0,0,13,33v2.57l-.79-.8a1,1,0,0,0-1.42,1.42Z"/><path class="cls-1" d="M45.79,33.79a1,1,0,0,0,1.42,1.42l.79-.8V37A12,12,0,0,1,36,49a1,1,0,0,0,0,2A14,14,0,0,0,50,37V34.41l.79.8a1,1,0,0,0,1.42-1.42C48.44,30,49.5,30.09,45.79,33.79Z"/></g></svg>