<svg xmlns="http://www.w3.org/2000/svg" viewBox="0 0 64 64"><defs><style>.cls-1{fill:#B5A88E;}</style></defs><title>payment</title><g id="payment"><path class="cls-1" d="M56.34,25.49a1,1,0,0,0,1.38-.27c2.41-3.61,2.48-3.54,2.37-4.08s1.61.73-25.54-17.37c-.79-.53,1.1-1.47-26.21,16.74a1,1,0,0,0-.28,1.39l2.22,3.32a1,1,0,0,0,1.38.27L14,23.93V40H7a3,3,0,0,0-3,3V57a3,3,0,0,0,3,3H33a3,3,0,0,0,3-3V54H58a1,1,0,0,0,1-1V48a1,1,0,0,0-1-1H54V23.93ZM11.39,23.27l-1.11-1.65L34,5.8,57.72,21.62l-1.11,1.65C32.81,7.41,34.24,8,33.45,8.57ZM34,57a1,1,0,0,1-1,1H7a1,1,0,0,1-1-1V43a1,1,0,0,1,1-1H33a1,1,0,0,1,1,1ZM32,40H22V28H32ZM57,52H36V49H57ZM52,22.61V47H36V43a3,3,0,0,0-2-2.82V27a1,1,0,0,0-1-1H21a1,1,0,0,0-1,1V40H16V22.61l18-12Z"/><path class="cls-1" d="M37,42H49a1,1,0,0,0,0-2H48V27a1,1,0,0,0-1-1H39a1,1,0,0,0-1,1V40H37A1,1,0,0,0,37,42Zm9-14v5H40V28Zm-6,7h6v5H40Z"/><path class="cls-1" d="M24,38a1,1,0,0,0,0-2A1,1,0,0,0,24,38Z"/><path class="cls-1" d="M20,44a6,6,0,1,0,6,6A6,6,0,0,0,20,44Zm0,10a4,4,0,1,1,4-4A4,4,0,0,1,20,54Z"/><path class="cls-1" d="M12,44H9a1,1,0,0,0,0,2h3A1,1,0,0,0,12,44Z"/><path class="cls-1" d="M31,54H28a1,1,0,0,0,0,2h3A1,1,0,0,0,31,54Z"/></g></svg>